<svg xmlns="http://www.w3.org/2000/svg" xmlns:xlink="http://www.w3.org/1999/xlink" xml:space="preserve" width="134.62mm" height="27.2605mm" style="shape-rendering:geometricPrecision; text-rendering:geometricPrecision; image-rendering:optimizeQuality; fill-rule:evenodd; clip-rule:evenodd" viewBox="0 0 12610 2553"> <defs>  <style type="text/css">       .fil2 {fill:#2B2A29}    .fil1 {fill:#B3302A}    .fil0 {fill:#B3302A;fill-rule:nonzero}     </style> </defs> <g id="Layer_x0020_1">  <metadata id="CorelCorpID_0Corel-Layer"></metadata>  <g id="_2621946306208">   <path class="fil0" d="M9931 776l-99 276 253 0 -99 -276c-4,-11 -8,-23 -13,-35 -4,-13 -8,-26 -12,-40l-2 -6 -2 7c-4,14 -9,28 -13,39 -4,12 -8,24 -13,35zm-3163 5l-99 276 253 0 -99 -276c-4,-11 -8,-22 -13,-35 -4,-13 -8,-26 -12,-40l-2 -6 -2 6c-4,15 -9,28 -13,40 -4,12 -8,24 -13,35zm-57 -373l191 0 438 1173 -222 0 -121 -325 -403 0 -121 325 -216 0c146,-391 292,-782 438,-1173l16 0zm-2294 373l-100 276 253 0 -99 -276c-4,-11 -8,-23 -12,-35 -5,-13 -9,-26 -13,-40l-2 -6 -1 6c-4,13 -9,26 -14,40 -4,12 -8,24 -12,35zm-58 -373l191 0c146,391 292,782 438,1173l-222 0 -121 -325 -403 0 -121 325 -216 0 438 -1173 16 0zm7357 1150l0 -1143 652 0 0 192 -434 0 0 292 364 0 0 192 -364 0 0 298 434 0 0 192 -652 0 0 -23zm-484 -871c-4,-9 -9,-17 -15,-25 -6,-7 -13,-14 -21,-20 -8,-6 -16,-11 -25,-16 -9,-4 -19,-8 -30,-11 -10,-3 -21,-6 -32,-7 -11,-2 -22,-3 -33,-3l-115 0 0 294 115 0c12,0 23,-1 33,-2 12,-2 22,-4 33,-7 10,-3 20,-6 29,-11 9,-4 17,-9 25,-15 8,-6 15,-13 21,-21 6,-7 11,-16 15,-25 5,-9 8,-19 10,-30 3,-11 4,-23 4,-36 0,-13 -1,-25 -4,-36 -2,-10 -5,-20 -10,-29zm199 214c-11,22 -23,41 -37,59 -15,17 -30,33 -48,47 -17,14 -36,26 -55,36 -19,11 -39,19 -60,26 -21,7 -42,12 -63,16 -22,3 -43,5 -64,5l-145 0 0 491 -215 0 0 -1166 360 0c21,0 42,1 64,5 21,3 42,8 63,15 21,7 41,15 60,26 20,10 38,22 55,36l0 0c18,14 33,30 48,47 14,18 26,37 37,59 11,21 20,45 25,70 6,25 9,51 9,79 0,28 -3,54 -9,79 -5,25 -14,49 -25,70zm-2311 629c-11,28 -23,54 -37,77 -14,24 -30,46 -47,65 -17,20 -35,37 -55,52 -19,16 -39,29 -60,40 -21,11 -42,21 -62,28 -21,8 -41,13 -61,17l-12 2 -150 -152 43 -8c41,-8 78,-21 110,-38 31,-17 57,-38 79,-64 22,-26 38,-58 49,-95 11,-39 17,-84 17,-135l0 -904 218 0 0 922c0,36 -2,70 -8,102 -5,33 -13,63 -24,91zm-662 68l-524 -574c-22,-24 -44,-48 -65,-72 -21,-23 -43,-48 -67,-76 -23,-27 -45,-53 -65,-76l-21 -24 0 14c1,27 1,52 1,73l0 718 -219 0 0 -1166 152 0 486 534c8,7 16,17 26,28 10,11 20,22 29,33l30 34 31 35 32 35c9,11 19,23 31,36l16 20 0 -4c0,-25 -1,-47 -1,-68l0 -683 219 0 0 1191 -84 0 -7 -8zm-2723 -911c-4,-9 -9,-17 -16,-25 -6,-7 -13,-14 -20,-20 -8,-6 -16,-11 -26,-16 -9,-4 -18,-8 -29,-11 -10,-3 -21,-6 -32,-7 -11,-2 -22,-3 -33,-3l-133 0 0 294 133 0c11,0 23,-1 33,-2 11,-2 22,-4 33,-7 10,-3 20,-6 29,-11 9,-4 17,-9 25,-15 7,-6 14,-13 20,-21 6,-7 12,-15 16,-25 5,-9 8,-19 10,-30 2,-10 4,-23 4,-36 0,-25 -5,-47 -14,-65zm178 884l-346 -481 -123 0 0 491 -215 0 0 -1166 378 0c21,0 42,1 63,5 21,3 42,8 63,15 22,7 42,15 61,26 19,10 38,22 55,36 17,14 33,30 47,47 15,18 27,37 38,59 11,21 20,45 25,70 6,25 8,51 8,79 0,40 -5,76 -15,109 -10,33 -26,63 -47,89 -20,25 -43,47 -67,66 -18,13 -36,24 -55,33l393 532 -256 0 -7 -10zm-2281 -884c-4,-9 -10,-17 -16,-25 -6,-7 -13,-14 -20,-20 -8,-6 -17,-11 -26,-16 -9,-4 -19,-8 -29,-11 -11,-3 -22,-6 -32,-7 -11,-2 -22,-3 -33,-3l-116 0 0 294 116 0c11,0 22,-1 33,-2 11,-2 22,-4 32,-7 11,-3 20,-6 29,-11 9,-4 18,-9 26,-15 15,-12 27,-27 36,-46 4,-9 8,-19 10,-30 2,-10 3,-23 3,-36 0,-26 -4,-47 -13,-65zm199 214c-11,22 -24,41 -38,59 -14,17 -30,33 -48,47 -17,14 -35,26 -54,36 -19,11 -40,19 -61,26 -21,7 -42,12 -63,16 -21,3 -43,5 -63,5l-145 0 0 491 -216 0 0 -1166 361 0c20,0 42,1 63,5 21,3 42,8 63,15 21,7 41,15 61,26 19,10 37,22 54,36 18,14 34,30 48,47 14,18 27,37 38,59 11,21 19,45 25,70 5,25 8,51 8,79 0,28 -3,55 -8,79 -6,25 -14,49 -25,70zm6043 -497l191 0 438 1172 -222 0 -121 -325 -403 0 -121 325 -216 0c146,-391 292,-781 438,-1172l16 0z"></path>   <path class="fil1" d="M135 2418l2079 0 0 -2078 -2079 0 0 2078zm2214 135l-2349 0 0 -2348 2349 0 0 2348z"></path>   <path class="fil1" d="M1275 696l-541 0 0 1366 310 0 2 -599 0 -313 -132 0 266 -266 266 266 -133 0 0 309c234,0 380,-169 380,-379 0,-234 -146,-384 -418,-384z"></path>   <path class="fil2" d="M2560 0c33,0 63,13 85,35 22,22 35,51 35,84 0,33 -13,63 -35,85 -22,21 -52,35 -85,35 -33,0 -63,-14 -84,-35 -22,-22 -35,-52 -35,-85 0,-33 13,-62 35,-84 21,-22 51,-35 84,-35zm-47 181l0 -123 54 0c11,0 20,1 26,3 5,2 10,6 13,12 4,5 5,11 5,18 0,9 -2,16 -8,22 -6,6 -15,10 -26,12 4,2 7,4 9,6 5,4 10,10 14,16l21 34 -20 0 -16 -26c-5,-7 -9,-13 -12,-17 -3,-4 -6,-6 -9,-8 -2,-1 -4,-3 -7,-3 -2,-1 -5,-1 -9,-1l-19 0 0 55 -16 0zm16 -69l35 0c8,0 13,-1 18,-2 4,-2 7,-4 9,-8 2,-3 4,-7 4,-11 0,-6 -3,-10 -7,-14 -4,-4 -11,-6 -20,-6l-39 0 0 41zm101 -62c-18,-18 -42,-29 -70,-29 -27,0 -52,11 -70,29 -18,17 -29,42 -29,69 0,28 11,52 29,70 18,18 43,29 70,29 28,0 52,-11 70,-29 18,-18 29,-42 29,-70 0,-27 -11,-52 -29,-69zm9860 -50c33,0 63,13 85,35 21,22 35,51 35,84 0,33 -14,63 -35,85 -22,21 -52,35 -85,35 -33,0 -63,-14 -85,-35 -21,-22 -35,-52 -35,-85 0,-33 14,-62 35,-84 22,-22 52,-35 85,-35zm-48 181l0 -123 55 0c11,0 19,1 25,3 6,2 10,6 14,12 3,5 5,11 5,18 0,9 -3,16 -9,22 -5,6 -14,10 -26,12 5,2 8,4 10,6 5,4 9,10 14,16l21 34 -20 0 -17 -26c-5,-7 -9,-13 -12,-17 -3,-4 -5,-6 -8,-8 -2,-1 -5,-3 -7,-3 -2,-1 -5,-1 -9,-1l-19 0 0 55 -17 0zm17 -69l35 0c7,0 13,-1 17,-2 4,-2 8,-4 10,-8 2,-3 3,-7 3,-11 0,-6 -2,-10 -6,-14 -4,-4 -11,-6 -20,-6l-39 0 0 41zm101 -62c-18,-18 -43,-29 -70,-29 -27,0 -52,11 -70,29 -18,17 -29,42 -29,69 0,28 11,52 29,70 18,18 43,29 70,29 27,0 52,-11 70,-29 18,-18 29,-42 29,-70 0,-27 -11,-52 -29,-69z"></path>   <path class="fil2" d="M5276 2059c16,0 16,23 0,23l-76 0c0,61 1,123 1,184 0,9 -8,13 -13,13 -6,0 -13,-4 -13,-13l0 -184 -75 0c-16,0 -16,-23 0,-23l176 0zm7092 143l-1749 0 0 -20 1749 0 0 20zm-7479 0l-1756 0 0 -20 1756 0 0 20zm5503 1l0 -27c0,-34 -23,-51 -54,-52 -24,-1 -48,12 -58,36 -3,7 -4,16 -5,25 0,22 7,42 25,58 10,7 22,11 35,12 31,0 56,-19 57,-52zm-90 -96c12,-5 24,-7 37,-7 19,1 41,7 53,27l0 -13c0,-7 5,-12 12,-12 8,0 13,5 13,12l0 150c0,8 -5,12 -13,12 -7,0 -12,-4 -12,-12l0 -16c-10,20 -35,31 -55,31 -16,0 -34,-5 -48,-15 -26,-17 -39,-46 -38,-79 0,-35 19,-66 52,-79l-1 1zm-190 6c0,-14 25,-15 25,0l0 153c0,15 -25,14 -25,0l0 -153zm25 -36c0,15 -25,15 -25,0l0 -15c0,-16 25,-16 25,0l0 15zm-174 126l0 -27c0,-30 -23,-51 -54,-52 -24,0 -48,12 -58,36 -3,7 -5,16 -5,25 -1,22 6,42 25,58 10,7 22,11 35,12 31,0 57,-19 57,-52zm-55 -103c22,0 44,10 55,28l0 -68c0,-15 24,-15 24,0l0 205c0,7 -4,12 -12,12 -8,0 -12,-5 -12,-12l0 -16c-11,21 -35,30 -55,30 -11,0 -22,-2 -33,-7l1 1c-37,-16 -56,-49 -55,-88 1,-49 36,-85 87,-85zm-229 75c0,-31 -25,-53 -53,-53 -33,0 -63,27 -63,64l0 79c0,7 -5,12 -13,12 -7,0 -13,-5 -13,-12l0 -152c0,-16 25,-16 25,0l0 21c12,-24 38,-35 65,-35 39,0 77,27 77,76l0 90c0,7 -5,12 -13,12 -7,0 -12,-5 -12,-12l0 -90zm-290 -111c0,-17 25,-17 25,0l0 202c0,16 -25,16 -25,0l0 -202zm-566 49c-6,-14 19,-20 23,-9l58 132 54 -111c5,-11 18,-11 23,0l54 112 57 -132c5,-12 29,-6 23,8l-68 158c-3,9 -18,8 -22,0l-55 -114 -56 114c-4,8 -18,10 -23,0l-68 -158zm-251 70l128 0c-3,-29 -20,-51 -47,-58l1 0c-12,-3 -25,-3 -37,0 -27,7 -43,30 -45,58zm89 -80c38,10 62,42 62,85l0 0c1,7 -2,15 -16,15l-134 0c4,28 28,51 62,51 16,0 32,-4 45,-14 12,-11 30,3 16,16 -15,15 -38,21 -60,21 -26,0 -53,-10 -69,-30 -36,-49 -20,-127 43,-144 15,-5 34,-5 50,0l1 0zm-257 -36c0,-14 26,-15 26,0l0 195c0,17 -24,18 -31,7l-127 -170 3 47 0 119c0,17 -26,17 -26,0l0 -194c0,-17 19,-20 28,-7l130 174 -3 -51 0 -120zm-483 60l0 138c0,15 -25,15 -25,0l0 -138 -18 0c-13,0 -13,-21 0,-21l18 0 0 -7c0,-44 52,-63 83,-38 12,10 -4,26 -14,17 -14,-13 -44,-5 -44,21l0 7 32 0c13,0 13,21 0,21l-32 0zm-345 37c0,56 36,91 84,91 46,0 83,-34 83,-91 0,-44 -28,-78 -70,-85 -10,-2 -20,-2 -30,0 -41,6 -67,39 -67,85zm-26 -1c0,-53 36,-98 90,-107 13,-2 24,-1 36,0 52,8 92,52 92,107 0,71 -50,115 -108,115 -61,0 -110,-43 -110,-115zm-287 -61c15,0 15,22 0,22l-37 0 0 91c0,19 3,40 26,40 5,0 12,-2 16,-4 14,-8 25,12 10,20 -9,5 -17,6 -26,6 -41,0 -51,-30 -51,-62l0 -91 -22 0c-16,0 -15,-22 0,-22l22 0 0 -39c0,-16 25,-16 25,0l0 39 37 0zm-221 11c0,-14 25,-15 25,0l0 153c0,15 -25,14 -25,0l0 -153zm25 -36c0,15 -25,15 -25,0l0 -15c0,-16 25,-16 25,0l0 15zm-188 53c11,-22 31,-28 50,-28 8,0 13,4 13,11 0,8 -5,12 -13,12 -34,0 -49,28 -49,62l0 77c0,7 -6,11 -13,11 -7,0 -12,-4 -12,-11l0 -151c0,-15 24,-16 24,0l0 17zm-169 -17c0,-14 25,-15 25,0l0 153c0,15 -25,14 -25,0l0 -153zm25 -36c0,15 -25,15 -25,0l0 -15c0,-16 25,-16 25,0l0 15zm-282 99l0 27c0,30 23,51 54,52 24,0 48,-13 58,-36 2,-7 4,-16 5,-25 0,-22 -7,-43 -25,-58 -10,-8 -22,-12 -35,-13 -31,0 -57,20 -57,53zm55 102c-23,0 -45,-9 -55,-27l0 73c0,16 -25,16 -25,0l0 -210c0,-8 5,-12 12,-12 8,0 12,4 12,12l0 16c12,-21 35,-30 56,-30 10,0 22,2 32,6l0 0c37,15 55,49 54,88 -1,48 -36,84 -86,84zm-364 -57c9,28 47,34 74,34 28,0 73,-8 73,-43 0,-29 -35,-32 -73,-35 -46,-3 -97,-8 -97,-58 0,-45 52,-65 93,-65 36,0 80,9 94,47 6,14 -17,20 -23,8 -10,-25 -46,-30 -70,-30 -23,0 -67,9 -67,40 0,30 34,33 73,36 46,4 96,6 96,57 0,52 -58,68 -99,68 -35,0 -88,-12 -99,-53 -4,-15 22,-20 25,-6zm-447 -38l128 0c-2,-29 -20,-51 -46,-58l0 0c-11,-3 -25,-3 -36,0 -28,7 -44,30 -46,58zm89 -80c39,10 62,42 63,85l0 0c1,7 -3,15 -17,15l-134 0c5,28 29,51 62,51 16,0 32,-4 46,-14 11,-11 29,3 16,16 -16,15 -38,21 -60,21 -27,0 -53,-10 -69,-30 -37,-49 -21,-127 42,-144 16,-5 34,-5 51,0l0 0zm-255 72c0,-31 -26,-53 -53,-53 -33,0 -64,23 -64,58l0 85c0,7 -4,12 -12,12 -8,0 -13,-5 -13,-12l0 -203c0,-15 25,-15 25,0l0 71c12,-24 39,-34 64,-34 40,0 77,27 77,76l0 90c0,7 -4,12 -12,12 -7,0 -12,-5 -12,-12l0 -90z"></path>  </g> </g></svg>